<svg width="280" height="338" viewBox="0 0 280 338" fill="none" xmlns="http://www.w3.org/2000/svg">
<g clip-path="url(#clip0_37_63)">
<path d="M154 229.1V223.1L141.5 222.8L129.1 222.5L128.8 227.5L128.5 232.5L124.5 232.8C119.9 233.1 116.6 231.6 118.8 230.2C119.7 229.6 120 227.4 119.8 223.1L119.5 216.9L113 214.1C90.1 204.5 69.6 181.3 58.9 153.2C57.1 148.5 56.1 147.1 55 147.6C46.5 151.3 39.8 146.2 32.3 130.3C30.5 126.3 28.3 123 27.6 123C24.6 123 24 120.5 24.9 112.9C25.5 108.8 26.4 101.2 27.1 96C28.3 85.7 29.1 83.9 32 84.7C33.4 85.1 33.9 84.6 34.2 82.3C34.4 80.3 35 79.5 36.5 79.5C38.1 79.5 38.6 80.4 39.1 84C39.4 86.5 39.8 87.9 39.8 87.3C40.1 85.4 43.8 85.7 44.9 87.7C45.7 89.1 45.9 88.7 46 85.4C46 80.6 48 77.4 50.4 78.3C51.5 78.7 52 80.1 52 82.8C52 86.5 52.1 86.6 55 86.2C57.3 85.9 58 85.3 58 83.5C58 80.2 60.7 78.2 62.5 80.1C63.7 81.3 63.7 84.5 62 103.4C60.9 115.4 59.7 125.6 59.4 126.1C59.1 126.6 58.1 127 57.1 127C55.9 127 55 128.1 54.4 130.3C53.7 132.5 52.8 133.5 51.5 133.5C49.7 133.5 49.5 132.8 49.6 126C49.7 119.4 49.6 118.9 48.8 122.3C47.4 127.6 43.6 127.1 42.7 121.5C42.5 119.8 42.2 121 42.1 124.3C42.1 127.5 41.6 131 41 132C40.3 133.4 40.7 134.7 43 137.8C48.1 144.9 52.1 145.2 53.8 138.5C54.4 136.6 55.4 135.4 56.7 135.2C58.5 134.9 59.1 135.8 60.5 140.7C67.1 163.6 82 187 97.2 198.5C104.7 204.2 117 210.3 126 212.7C136.2 215.5 161.9 215.2 172.5 212.2C189.2 207.4 202.8 197.5 212.1 183.3C219.5 171.9 222.7 163.2 227.5 141.3C228.2 138.3 229.8 138.4 234 141.5C241.1 146.8 243.2 144.4 244 130.2C244.5 120.1 244.6 119.5 246.8 119.2C249.8 118.7 249.6 117 246.5 117C243.9 117 243.7 116.3 241.9 104C241 98 241.5 112.3 242.7 125.6C243.2 131.8 243 132.8 241.5 133.4C238.9 134.3 237.9 132.9 237.3 127.6C236.8 123.5 236.6 123.2 235.4 124.7C234.3 126.2 233.8 126.3 232.1 125.3C230.2 124.1 230.1 124.3 229.8 128.8C229.6 132.7 229.2 133.5 227.5 133.5C226.2 133.5 225.3 132.5 224.6 130.3C224 128.1 223.1 127 221.9 127C220.9 127 219.9 126.6 219.5 126C219.2 125.5 218.1 115.3 217 103.3C215.5 84.9 215.4 81.3 216.5 80.1C218.4 78.2 221 80.3 221 83.6C221 85.5 221.5 86 223.4 86C225.1 86 226.1 86.8 226.8 88.8C227.6 90.9 227.7 90.1 227.3 85.3C226.8 79.9 227 79 228.5 78.4C231 77.4 233 80.5 233 85.4C233 89.1 233.1 89.2 234.4 87.4C235.7 85.8 236.2 85.7 237.9 86.7C239.8 87.9 239.9 87.7 240.2 83.7C240.6 78.3 243.5 77.2 245.1 81.9C245.8 83.9 246.9 85 248 85C249.1 85 250.4 85.8 251 86.8C251.9 88.1 252 87.1 251.7 82.3C251.2 76.3 252 74 254.6 74C255.3 74 256.1 74.8 256.5 75.9C257.5 79.2 260.8 109.4 260.3 110.8C259.4 113 255.7 111.7 254.8 109C254.4 107.5 254.2 109.4 254.3 114C254.5 120.8 254.3 121.6 252.4 122.4C250.6 123.2 250.2 124.5 249.7 131.8C248.7 146 244 151.9 236 148.7L232.3 147.3L230.1 155.8C221.7 188.8 199.2 212.4 169.8 218.7C162 220.3 162 220.3 162 223.6C162 225.4 162.6 227 163.2 227.2C164.2 227.6 164 228.6 162.5 231.3C160.9 234.4 160 235 157.3 235H154V229.1Z" fill="#5C594E"/>
<path d="M129.4 188.6C125.7 184.9 125.3 183.8 127.4 182.1C129 180.8 138.6 182.5 140.9 184.6C142.1 185.7 141.8 186.3 139.2 188.9C135.3 192.8 133.6 192.8 129.4 188.6Z" fill="#5C594E"/>
<path d="M159.5 184C159.2 183.5 159.2 182.1 159.5 180.9C160.1 179 159.9 178.9 155.3 179.5C149.7 180.2 145.3 178.4 145.8 175.6C146.1 174.1 145.8 174 144 175C141.4 176.4 139 175.6 139 173.4C139 171.9 138.7 171.9 136.7 173.8C134.3 176.1 131 176.8 131 175C131 174.4 129.9 173.5 128.5 173C127.1 172.5 126 171.5 126 170.8C126.1 170.1 128.5 166.8 131.5 163.6C136.1 158.5 137.1 157.8 138.4 158.9C139.3 159.7 140 160.9 140 161.6C140 163.2 141.6 163.5 142.5 162C143.5 160.4 146 162.8 146 165.3C146 167.2 146.1 167.2 147.9 165.6C150.8 163 153.5 163.9 153.3 167.4C153.1 169.7 153.4 170 154.8 169.5C158.1 168.1 159.5 168.5 159.8 170.9C160.1 172.7 160.6 173.1 162.6 172.7C166.4 172 167.4 174.1 165.8 179.7C164.8 183.3 163.9 184.6 162.3 184.8C161.1 185 159.9 184.6 159.5 184Z" fill="#5C594E"/>
<path d="M118.1 153C109.8 152.3 107.6 151.2 108.7 148.2C109.2 147 111.4 146.9 122.4 147.5C147.9 149 166.4 147.6 167.8 144.1C169.6 139.3 161.9 113.5 154 98.0999C148.7 87.7999 148.1 85.5999 150.4 84.6999C152.5 83.8999 154.3 86.3999 159.8 97.4999C168.2 114.4 173.9 133.3 174 144.1C174 149.2 173.8 149.4 164.5 152C159.6 153.5 129.5 154.1 118.1 153Z" fill="#5C594E"/>
<path d="M185.1 116.4C182.3 112.9 182.5 108.7 185.4 105.3C187.4 103 188.2 102.7 189.6 103.6C193.6 106 193.2 115.8 189 118C187.5 118.8 186.7 118.5 185.1 116.4Z" fill="#5C594E"/>
<path d="M113.4 112.5C112.7 110.6 112 108.6 112 108.1C112 105.8 114.4 102.1 116.6 101.1C118.7 100.2 119.2 100.4 120.6 102.5C122.4 105.3 122.1 112 120 114.5C117.8 117.1 115 116.3 113.4 112.5Z" fill="#5C594E"/>
<path d="M18.8 110.8C18.3 109.5 21.4 80.6 22.5 76.3C23.1 73.8 25.2 73.3 26.8 75.3C27.9 76.6 27.3 83.9 24.6 103.5C23.6 110.5 23.2 111.5 21.4 111.8C20.2 112 19 111.5 18.8 110.8Z" fill="#5C594E"/>
<path d="M184.4 89.4999C184 88.5999 183.1 88.0999 182.3 88.1999C181.4 88.3999 180.3 87.5999 179.6 86.4999C179 85.3999 178.4 84.2999 178.2 84.0999C178.1 83.7999 176.7 85.0999 175.2 86.9999C173.2 89.2999 171.8 90.0999 170.7 89.6999C167.9 88.6999 168.7 86.2999 174.1 79.3999C179.8 72.1999 181.9 71.5999 183.2 76.8999L184.1 80.1999L186.5 77.9999C190.1 74.5999 194.3 77.2999 190.8 80.7999C188.3 83.2999 191.7 81.8999 195.2 78.9999C199.1 75.7999 202 75.7999 202 79.0999C202 81.4999 202.4 81.4999 206.7 78.4999C211 75.5999 213.6 76.5999 212.5 80.7999C212.1 82.3999 212.5 83.8999 213.6 85.0999C215.6 87.2999 214.8 88.4999 210.8 89.4999C208.9 89.9999 207.6 89.5999 206.2 88.1999C204.4 86.3999 204 86.2999 202.9 87.5999C201.4 89.4999 197 89.3999 197 87.4999C197 85.2999 195.1 85.6999 191.4 88.4999C187.7 91.2999 185.2 91.6999 184.4 89.4999Z" fill="#5C594E"/>
<path d="M115.2 87.7999C114.5 87.0999 114 85.2999 114 83.7999C114 80.3999 113.2 80.2999 110.1 83.4999C107.3 86.4999 106 86.6999 105.3 83.9999C104.8 82.0999 104.7 82.0999 102 84.1999C99.1 86.2999 97 85.9999 97 83.3999C97 81.3999 96 81.6999 92.9 84.5999C90.1 87.2999 87 87.2999 87 84.6999C87 83.8999 89.6 80.3999 92.8 76.9999C98.8 70.3999 102 69.3999 102 74.1999C102 76.2999 102.1 76.2999 104.9 73.5999C108 70.5999 111 70.5999 111 73.5999C111 75.0999 111.3 75.0999 113.3 73.1999C116 70.5999 117.9 70.3999 119.4 72.4999C120.4 73.7999 121 73.2999 123.5 68.9999C127.8 61.5999 129.4 62.4999 129.8 72.3999C130 76.7999 129.7 80.6999 129.2 81.1999C127.9 82.4999 125 81.0999 125 79.0999C125 78.1999 123.5 79.8999 121.7 82.8999C118.2 88.7999 117.1 89.6999 115.2 87.7999Z" fill="#5C594E"/>
<path d="M212 48C209.7 46.8 182.7 40.2 173 38.6C152.6 35.1 137.5 35.7 117.9 40.6C111 42.4 107.4 42.8 106.8 42.2C104.7 40.1 107 38.1 113.4 36.1C137.6 28.6 163.5 29.3 198.5 38.4C214.5 42.6 217 43.5 217 45.4C217 47.4 213.8 49 212 48Z" fill="#5C594E"/>
<path d="M104.7 27.3999C102.9 25.5999 104.2 23.0999 107.3 22.0999C112.4 20.4999 122.6 18.2999 134.5 16.3999C155.7 12.7999 185 14.0999 209.3 19.5999C215.3 20.9999 216.1 21.3999 215.8 23.2999C215.4 26.0999 213.4 26.0999 197.5 23.0999C182.5 20.1999 158.5 19.2999 143.9 20.8999C134.9 21.8999 113.7 25.7999 107.5 27.4999C106.4 27.8999 105.1 27.7999 104.7 27.3999Z" fill="#5C594E"/>
<path d="M111 13.5C109.1 11.2 111.1 9.49996 117.8 7.69996C140.7 1.29996 171.3 1.09996 201 7.09996C211.6 9.29996 213.8 10.6 211.7 13.4C210.5 15 210 15.1 204.5 13.7C186.3 9.09996 160.7 7.09996 143.5 8.89996C133.4 9.99996 117.8 12.9 113.9 14.5C113 14.8 111.8 14.4 111 13.5Z" fill="#5C594E"/>
<path d="M149.6 310.8C147.2 308.3 145.8 305.5 144.2 299.4C143 295 142 290.2 142 288.8C142 284.4 140.8 284.9 137.1 291C129.7 303.3 124.4 308 118.2 308C110.7 308 102.3 301.3 97.5999 291.8C93.1999 282.7 89.9999 269.6 89.9999 260.3C89.9999 253.4 89.7999 252.2 88.4999 252.6C85.4999 253.8 86.8999 249.1 89.9999 247.5C91.5999 246.7 94.2999 244 95.9999 241.5C101.2 234 108.1 230 116.1 230C119.4 230 120 229.7 120.1 227.8C120.2 226.2 120.4 226 120.7 227.2C121.5 230.3 126 230.6 126 227.4C126 226.6 126.7 226 127.5 226C128.7 226 129 227.5 129 233.1C129 241.3 127.9 246.5 123.7 257.9L120.6 266.2L123 268.2C127.5 271.8 134.5 274.9 136.1 273.9C138.4 272.5 146 272.9 149 274.6C152.6 276.8 154.3 276 157.6 271.1C161.8 264.6 161.8 259.8 157.6 249.4C153.6 239.7 152.9 231.6 155.5 227C156.9 224.5 156.9 224.5 157 228.5V232.5L158.9 229.4L160.8 226.3L167.9 227.5C176.7 229 179 230.5 183.1 237.4C185.1 240.7 187.3 243.1 188.7 243.5C190.2 243.8 191 244.8 191 246.1C191 247.4 190.5 248 189.8 247.7C188.8 247.4 188.5 250.4 188.4 260.9C188.4 272.7 188.1 275.3 186.1 280.4C179.1 298.1 164.4 314 155.1 314C153.8 314 151.3 312.5 149.6 310.8Z" fill="#D2CEFF"/>
<path d="M146.1 277.8C143.2 276 142.4 275.8 139.6 276.8C137.8 277.5 135.3 278 134.1 278C131.7 278 122.4 273.4 118.1 270.1L115.7 268.3L119.7 257.4C125.2 242.7 126 238.7 126 227.4C126 217.9 126 217.8 128.3 218.5C129.5 218.9 136.5 219.5 143.8 219.7L157 220.2V228.9C157 236.5 157.4 238.6 160.4 246C162.3 250.7 164.2 256.1 164.5 258.2C166.1 266.9 158.8 280 152.4 280C150.8 280 148 279 146.1 277.8Z" fill="white"/>
<path d="M120 222.8C119.7 219.1 119.9 216.5 120.3 216.9C120.7 217.3 121 220.4 120.8 223.6L120.5 229.5L120 222.8Z" fill="white"/>
<path d="M206 198.8C208.4 196.1 210.5 194 210.7 194C211.5 194 210.7 194.9 206.3 199L201.5 203.5L206 198.8Z" fill="white"/>
<path d="M136 166.2C138.4 163 139.9 162.1 140.1 163.8C140.1 164.2 138.7 165.6 136.8 167L133.5 169.5L136 166.2Z" fill="white"/>
<path d="M127.8 153.3C129 153.1 130.8 153.1 131.8 153.3C132.7 153.6 131.7 153.8 129.5 153.7C127.3 153.7 126.5 153.5 127.8 153.3Z" fill="white"/>
<path d="M114.8 152.3C116 152.1 118 152.1 119.3 152.3C120.5 152.5 119.5 152.7 117 152.7C114.5 152.7 113.5 152.5 114.8 152.3Z" fill="white"/>
<path d="M146.8 148.3C148 148.1 149.8 148.1 150.8 148.3C151.7 148.6 150.7 148.8 148.5 148.7C146.3 148.7 145.5 148.5 146.8 148.3Z" fill="white"/>
<path d="M249 127.2C248.7 122.6 248.8 118.6 249.3 118.3C249.7 118.1 250 118.8 250 119.9C250 121 250.8 122.1 251.8 122.3C253.3 122.7 253.3 122.8 251.8 122.9C250.4 123 250 124.2 249.8 129.3C249.5 135.4 249.5 135.4 249 127.2Z" fill="white"/>
<path d="M244.3 129C244.3 126 244.5 124.7 244.7 126.3C244.9 127.8 244.9 130.2 244.7 131.8C244.5 133.3 244.3 132 244.3 129Z" fill="white"/>
<path d="M237 127.4C237 126 236.3 122.1 235.5 118.7C232.7 106.6 231.9 85.7999 234.4 89.8999C235.7 91.8999 238.6 130 237.6 130C237.2 130 237 128.8 237 127.4Z" fill="white"/>
<path d="M242.2 127C242.2 125.1 242.4 124.3 242.7 125.3C242.9 126.2 242.9 127.8 242.7 128.8C242.4 129.7 242.2 128.9 242.2 127Z" fill="white"/>
<path d="M228.5 116.4C228.2 111 227.5 103.2 226.9 99.1998C225.6 88.4998 225.9 86.6998 228.1 93.4998C229.1 96.7998 229.9 100.6 229.9 102C229.8 103.4 230.1 108.7 230.5 113.7C230.8 119.1 230.7 123.7 230.2 124.7C229.5 125.9 229 123.5 228.5 116.4Z" fill="white"/>
<path d="M35.2 123.8C34.5 123.1 34 122.1 34 121.5C34 120.8 32.8 119.8 31.4 119.2C28.4 117.8 29.2 115.7 32.4 116.6C35.1 117.2 34.9 117.9 37.1 97.1999C37.9 89.6999 38.7 86.3999 39.2 87.3999C39.7 88.2999 39.9 91.7999 39.7 95.1999C39 104.6 37 124.3 36.7 124.7C36.5 124.8 35.8 124.4 35.2 123.8Z" fill="white"/>
<path d="M42.6999 119.5C42.2999 116.2 42.0999 111.6 42.3999 109.3C42.5999 107.1 43.1999 101.5 43.5999 97.1C43.8999 92.6 44.6999 89 45.2999 89C46.1999 89 45.8999 96.6 44.1999 117.5L43.4999 125.5L42.6999 119.5Z" fill="white"/>
<path d="M48.6 113.5C49.3 98.4998 51 86.2998 52.5 86.2998C53.4 86.2998 53.5 87.0998 52.9 89.3998C52.4 91.0998 52 96.2998 51.9 101C51.9 105.8 51 112.5 50 116.5L48.1 123.5L48.6 113.5Z" fill="white"/>
<path d="M240.6 112.3C239.2 101.7 238.9 89.0999 239.9 87.2999C240.8 85.6999 241 85.8999 241.1 88.4999C241.3 93.2999 241.6 117 241.4 117C241.3 117 241 114.9 240.6 112.3Z" fill="white"/>
<path d="M183.2 111C183.2 109.1 183.4 108.3 183.7 109.3C183.9 110.2 183.9 111.8 183.7 112.8C183.4 113.7 183.2 112.9 183.2 111Z" fill="white"/>
<path d="M252.7 107.5C252.3 104.8 251.7 99.7999 251.4 96.4999C251.1 93.1999 250.7 89.8999 250.5 89.2999C250.2 88.5999 250.5 87.9999 251 87.9999C251.6 87.9999 252 86.9999 252.1 85.7999C252.3 82.2999 253.8 90.4999 254.8 99.6999C255.2 104.2 255.3 107.7 254.9 107.4C254.5 107.2 254 108.2 253.8 109.7C253.6 111.8 253.3 111.2 252.7 107.5Z" fill="white"/>
<path d="M121.3 107.5C121.3 105.3 121.5 104.5 121.7 105.8C121.9 107 121.9 108.8 121.7 109.8C121.4 110.7 121.2 109.7 121.3 107.5Z" fill="white"/>
<path d="M242.3 104.5C242.3 102.3 242.5 101.5 242.7 102.8C242.9 104 242.9 105.8 242.7 106.8C242.4 107.7 242.2 106.7 242.3 104.5Z" fill="white"/>
<path d="M26.1 103C26 101.1 25.7 98.4 25.5 97C25 94.8 25.1 94.8 25.9 96.5C26.7 98.2 26.9 98 27 95C27.1 93.1 27.4 92.2 27.6 93C27.8 93.8 27.6 97.2 27.1 100.5C26.5 104.9 26.2 105.6 26.1 103Z" fill="white"/>
<path d="M232.3 84.5C232.3 82.3 232.5 81.5 232.7 82.8C232.9 84 232.9 85.8 232.7 86.8C232.4 87.7 232.2 86.7 232.3 84.5Z" fill="white"/>
<path d="M187.7 83.9C188.9 82.7 190.2 81.9 190.5 82.2C190.8 82.5 189.8 83.5 188.3 84.5L185.5 86.2L187.7 83.9Z" fill="white"/>
<path d="M159.3 36.2999C160.2 36.0999 161.8 36.0999 162.8 36.2999C163.7 36.5999 162.9 36.7999 161 36.7999C159.1 36.7999 158.3 36.5999 159.3 36.2999Z" fill="white"/>
<path d="M136.8 31.2999C138 31.0999 139.8 31.0999 140.8 31.2999C141.7 31.5999 140.7 31.7999 138.5 31.6999C136.3 31.6999 135.5 31.4999 136.8 31.2999Z" fill="white"/>
<path d="M142.3 15.2999C143.2 15.0999 144.8 15.0999 145.8 15.2999C146.7 15.5999 145.9 15.7999 144 15.7999C142.1 15.7999 141.3 15.5999 142.3 15.2999Z" fill="white"/>
<path d="M153.3 14.2999C154.8 14.0999 157.2 14.0999 158.8 14.2999C160.3 14.4999 159 14.6999 156 14.6999C153 14.6999 151.7 14.4999 153.3 14.2999Z" fill="white"/>
<path d="M172.3 8.2999C173.2 8.0999 174.8 8.0999 175.8 8.2999C176.7 8.5999 175.9 8.7999 174 8.7999C172.1 8.7999 171.3 8.5999 172.3 8.2999Z" fill="white"/>
<path d="M141.8 3.2999C143 3.0999 144.8 3.0999 145.8 3.2999C146.7 3.5999 145.7 3.7999 143.5 3.6999C141.3 3.6999 140.5 3.4999 141.8 3.2999Z" fill="white"/>
<path d="M157.3 2.2999C158.8 2.0999 161 2.0999 162.3 2.2999C163.5 2.4999 162.3 2.6999 159.5 2.6999C156.8 2.6999 155.7 2.4999 157.3 2.2999Z" fill="white"/>
<path d="M2 337.1C2 334.2 20.9 305.4 31.4 292.4C45.2 275.2 62.7 261.2 83.1 250.9L92.8 246.1L91.8 248.8C91 250.8 88.6 252.7 83.2 255.5C54.7 270.5 35.5 290 12 327.8C7.7 334.6 5 338 3.8 338C2.8 338 2 337.6 2 337.1Z" fill="#D6F1D1"/>
<path d="M268.5 325.8C253.5 301 238.7 281.9 226 270.8C217.6 263.3 210.9 258.9 198 252.1C191.4 248.5 187.4 245.8 187.2 244.7C186.7 242.2 188.7 242.8 200.3 248.6C219.3 258.1 234.7 271.1 249 289.5C261.8 306.1 276.6 329.3 275.5 331C274.1 333.2 272.1 331.7 268.5 325.8Z" fill="#D6F1D1"/>
<path d="M110 328.3C107.8 325.4 107.6 320 109.7 319.3C112.3 318.4 115.5 329 113.1 330.5C112.6 330.8 111.2 329.8 110 328.3Z" fill="#D6F1D1"/>
<path d="M250.8 327.8C248.6 324.4 247.9 321.7 248.9 320.1C249.7 318.8 250.1 318.8 251.6 320.1C253.7 321.8 256.3 327.7 255.5 329C254.5 330.7 252.3 330.1 250.8 327.8Z" fill="#D6F1D1"/>
<path d="M48.5999 316.8C46.5999 313.6 45.7999 309.8 46.8999 308.1C48.1999 306.1 50.5999 308.1 51.9999 312.6C53.8999 318.4 51.4999 321.3 48.5999 316.8Z" fill="#D6F1D1"/>
<path d="M200.4 314.5C199.3 311.9 203 305.6 205.8 305.2C207 305 208 305.4 208 306C208 307.8 205.4 312.4 203.1 314.4C201.1 316.2 201 316.2 200.4 314.5Z" fill="#D6F1D1"/>
<path d="M73.7 302.6C72.9 300.6 74.6 293.8 76.2 292.9C78.5 291.4 79 291.9 79 295.8C79 301.3 75.1 306.3 73.7 302.6Z" fill="#D6F1D1"/>
<path d="M217.7 294.4C215.3 291.9 218.4 283 221.7 283C223 283 223.1 283.8 222.6 287.3C221.9 291.5 219 295.7 217.7 294.4Z" fill="#D6F1D1"/>
<path d="M202.2 271.7C200.3 269.5 198.9 264.8 199.5 262.9C201.2 257.6 205.6 264.2 205.1 271.3C205 273.3 203.7 273.5 202.2 271.7Z" fill="#D6F1D1"/>
</g>
<defs>
<clipPath id="clip0_37_63">
<rect width="280" height="338" fill="white"/>
</clipPath>
</defs>
</svg>
